<?xml version="1.0" encoding="UTF-8"?>
<svg width="8000px" height="8000px" viewBox="0 0 8000 8000" version="1.1" xmlns="http://www.w3.org/2000/svg" xmlns:xlink="http://www.w3.org/1999/xlink">
    <title>KFlogo_paperbeigeontransparent@1x</title>
    <defs>
        <path d="M4729.47129,1333 C5473.13856,1333 6076,1935.86144 6076,2679.52871 L6076,5480.47129 C6076,6224.13856 5473.13856,6827 4729.47129,6827 L3270.52871,6827 C2526.86144,6827 1924,6224.13856 1924,5480.47129 L1924,2679.52871 C1924,1935.86144 2526.86144,1333 3270.52871,1333 L4729.47129,1333 Z M3613.9401,4085.23045 L2413.37957,4085.23045 C2380.88656,4085.23045 2368.73825,4094.59006 2357.68198,4105.76578 L2356.96227,4106.49713 C2356.48323,4106.98631 2356.00546,4107.47861 2355.52739,4107.97342 L2354.80985,4108.71742 C2342.84036,4121.14626 2334.77748,4143.89802 2333.75021,4160.91386 C2333.06537,4172.25775 2332.50746,4186.93108 2332.07647,4204.93385 L2332.07647,5714.56169 C2332.07647,6261.7699 2738.32515,6714.09366 3265.67524,6786.38567 L3265.67806,6786.35183 C3289.81136,6786.97841 3316.93871,6787.96333 3347.06011,6789.30657 C3528.00302,6797.3756 3679.32719,6795.96217 3801.03262,6785.06627 C3965.17836,6769.62693 4186.55784,6596.02726 4186.55784,6372.00697 L4186.55784,4461.93924 C4186.55784,4237.91895 3946.9601,4085.23045 3613.9401,4085.23045 Z M4966.77613,4084.64191 L4733.66213,4084.64191 L4733.66213,5401.25238 L4919.20185,5401.25238 C5180.86042,5401.25238 5361.6427,5275.48661 5361.6427,4968.93253 L5409.21699,4968.93253 L5409.21699,5872.87405 L5361.6427,5872.87405 C5361.6427,5566.31997 5180.86042,5440.55419 4919.20185,5440.55419 L4733.66213,5440.55419 L4733.66213,6372.00697 C4733.66213,6525.6861 4767.47604,6658.2308 4868.65912,6698.76185 C4886.18236,6705.78116 4917.87963,6711.33694 4947.97703,6711.02667 C4978.07442,6710.71639 4996.22451,6708.52891 5053.94104,6687.22208 C5068.45412,6681.86438 5082.59317,6675.89133 5096.35818,6669.30295 L5096.36729,6669.31875 C5437.10772,6487.16498 5668.94118,6127.93714 5668.94118,5714.56169 L5668.9417,5108.89614 C5667.89007,5065.83974 5665.36885,5016.92469 5661.37804,4962.15099 C5651.10714,4821.18318 5643.39569,4757.02369 5611.77459,4634.54701 C5527.07161,4306.47049 5346.54461,4084.64191 4966.77613,4084.64191 Z M4723.8155,1373.11499 L4723.80742,1373.32082 C4542.99533,1373.32082 4400.24895,1440.13599 4138.54724,1754.56029 L3715.0663,2261.56948 C4151.72608,3137.70844 4437.88671,3651.83687 4573.54819,3803.95478 C4669.25668,3911.27321 4910.45638,3991.05704 5108.07354,4022.41379 C5145.11379,4028.29113 5176.21701,4032.7913 5203.02114,4036.2241 C5257.26663,4043.17129 5301.09155,4044.56858 5333.69819,4045.3401 C5346.36021,4045.63971 5357.58351,4045.80347 5368.72807,4045.88913 L5371.67719,4045.91002 C5372.66024,4045.91641 5373.64361,4045.92222 5374.62824,4045.9275 L5376.59944,4045.93738 C5381.86193,4045.9619 5387.17784,4045.97213 5392.68891,4045.9741 L5396.86101,4045.97411 C5407.46489,4045.97072 5418.89039,4045.94322 5432.09079,4045.93207 L5432.13031,4045.93224 C5478.81675,4045.77911 5505.51304,4045.58173 5512.21918,4045.3401 C5567.15172,4043.36087 5589.94167,4030.40561 5612.76567,4011.50368 C5635.58967,3992.60175 5649.04537,3962.15991 5657.92265,3933.39776 C5663.84084,3914.22299 5667.51368,3878.99545 5668.94118,3827.71513 L5668.94118,2446.45609 C5668.94118,1895.2675 5256.76092,1440.34877 4723.8155,1373.11499 Z M3358.20033,2682.11199 L3239.24501,2823.60293 L3239.24501,3660.75763 C3239.24501,3882.35793 3290.45743,4042.42852 3613.93362,4045.87079 L3613.9401,4045.3401 C3688.02404,4045.41965 3759.94146,4045.4944 3829.69235,4045.56435 C3951.24146,4042.34133 4000.55907,4017.0712 4000.55907,3947.66981 C4000.55907,3912.29708 3986.28443,3872.99404 3957.73515,3821.90009 L3358.20033,2682.11199 Z M2645.51156,1700.20473 C2635.57972,1703.43365 2624.39188,1711.25729 2600.45618,1737.08978 C2584.49906,1754.31143 2562.63232,1780.54552 2534.85599,1815.79205 L2534.92266,1815.62282 C2407.25909,1993.20631 2332.07647,2211.05128 2332.07647,2446.45609 L2332.07647,3689.6588 C2332.07647,3695.70636 2332.71979,3750.66202 2333.57095,3806.26133 L2333.67406,3812.93325 C2334.50646,3866.28388 2335.51435,3918.44849 2336.31245,3926.72577 C2337.97515,3943.97012 2341.76829,3985.94487 2364.28123,4001.45452 C2386.79417,4016.96417 2413.37957,4019.19017 2432.22044,4014.73199 C2582.38955,3979.19858 2692.05053,3870.559 2692.05053,3660.75763 L2692.05053,1750.62999 C2692.05053,1727.71809 2685.80384,1710.92967 2677.97161,1704.16344 C2670.13938,1697.39721 2655.4434,1696.97581 2645.51156,1700.20473 Z M4010.07549,1373.32082 L3624.66025,1373.32082 C3291.58535,1373.32082 3239.24501,1526.60267 3239.24501,1750.62999 L3239.24501,2756.78776 L4090.96511,1742.76938 C4157.58009,1664.1633 4195.64579,1577.69662 4195.64579,1510.88146 C4195.64579,1432.27538 4143.30545,1373.32082 4010.07549,1373.32082 Z" id="path-1"></path>
        <filter x="-0.5%" y="-0.4%" width="101.1%" height="100.8%" filterUnits="objectBoundingBox" id="filter-2">
            <feGaussianBlur stdDeviation="15" in="SourceAlpha" result="shadowBlurInner1"></feGaussianBlur>
            <feOffset dx="0" dy="15" in="shadowBlurInner1" result="shadowOffsetInner1"></feOffset>
            <feComposite in="shadowOffsetInner1" in2="SourceAlpha" operator="arithmetic" k2="-1" k3="1" result="shadowInnerInner1"></feComposite>
            <feColorMatrix values="0 0 0 0 0.1634893   0 0 0 0 0.139276033   0 0 0 0 0.131204943  0 0 0 0.434042124 0" type="matrix" in="shadowInnerInner1"></feColorMatrix>
        </filter>
    </defs>
    <g id="KFlogo_paperbeigeontransparent" stroke="none" stroke-width="1" fill="none" fill-rule="evenodd">
        <g id="Combined-Shape" fill-rule="nonzero">
            <use fill="#CBC5C3" xlink:href="#path-1"></use>
            <use fill="black" fill-opacity="1" filter="url(#filter-2)" xlink:href="#path-1"></use>
        </g>
    </g>
</svg>