<?xml version="1.0" encoding="UTF-8"?>
<svg width="8000px" height="8000px" viewBox="0 0 8000 8000" version="1.1" xmlns="http://www.w3.org/2000/svg" xmlns:xlink="http://www.w3.org/1999/xlink">
    <title>KFlogo_outlineswhite@1x</title>
    <g id="KFlogo_outlineswhite" stroke="none" stroke-width="1" fill="none" fill-rule="evenodd">
        <rect id="Rectangle" fill="#E4DBDA" x="-155" y="-168" width="10244" height="8495"></rect>
        <rect id="Rectangle" fill="#FFFFFF" x="-379" y="-168" width="8379" height="8633"></rect>
        <path d="M4717,1276 C5089.23992,1276 5426.23992,1426.88004 5670.17994,1670.82006 C5914.11996,1914.76008 6065,2251.76008 6065,2624 L6065,5376 C6065,5748.23992 5914.11996,6085.23992 5670.17994,6329.17994 C5426.23992,6573.11996 5089.23992,6724 4717,6724 L3283,6724 C2910.76008,6724 2573.76008,6573.11996 2329.82006,6329.17994 C2085.88004,6085.23992 1935,5748.23992 1935,5376 L1935,2624 C1935,2251.76008 2085.88004,1914.76008 2329.82006,1670.82006 C2573.76008,1426.88004 2910.76008,1276 3283,1276 L4717,1276 Z M3620.63478,4030.13905 L2440.89321,4030.13905 C2420.78672,4030.13905 2412.12723,4035.21707 2405.01834,4041.8937 L2404.51898,4042.3676 C2403.77342,4043.0823 2403.04263,4043.81401 2402.31487,4044.55858 L2401.83001,4045.05683 C2401.66846,4045.22352 2401.50692,4045.3908 2401.34528,4045.55862 C2393.2229,4053.99157 2388.28939,4069.57699 2387.59927,4081.00674 C2386.94423,4091.85558 2386.41358,4105.8704 2386,4123.05086 L2386,5606 C2386,5866.78414 2482.16784,6105.10825 2640.98104,6287.4335 C2801.5756,6471.80385 3026.21889,6598.92933 3280.25545,6634.09705 C3303.84193,6634.7235 3330.2403,6635.68555 3359.49637,6636.99003 C3535.9031,6644.8557 3683.44652,6643.52488 3802.12355,6632.91024 C3884.30466,6625.18177 3981.57084,6574.05771 4053.8304,6496.64785 C4114.86788,6431.25991 4158.32274,6346.63212 4158.32274,6251.95734 L4158.32274,4375.26538 C4158.32274,4274.05958 4103.63752,4189.50766 4012.61995,4129.6379 C3916.13831,4066.17395 3779.45892,4030.13905 3620.63478,4030.13905 Z M4950.01123,4029.5608 L4745.93967,4029.5608 L4745.93967,5273.16534 L4903.26193,5273.16534 C5029.97966,5273.16534 5136.93051,5242.49536 5209.72845,5171.37231 C5280.09155,5102.62806 5317.4017,4996.66558 5312.62158,4848.39967 L5409.7797,4848.39967 L5409.7797,5786.54607 L5312.62158,5786.54607 C5317.4017,5638.28016 5280.09155,5532.31768 5209.72845,5463.57343 C5136.93051,5392.45037 5029.97966,5361.7804 4903.26193,5361.7804 L4745.93967,5361.7804 L4745.93967,6251.95734 C4745.93967,6329.05692 4754.62554,6400.59698 4777.60989,6456.22218 C4795.69064,6499.98002 4822.68923,6533.69344 4862.89078,6549.79486 C4878.00043,6555.84653 4905.37473,6560.3215 4931.28044,6560.05447 C4958.50328,6559.77387 4974.865,6557.45777 5027.00767,6538.2112 C5040.54662,6533.21379 5053.73676,6527.64271 5066.58415,6521.50758 C5232.55556,6432.57852 5371.53291,6299.8235 5468.06117,6138.71928 C5561.37164,5982.98549 5615,5800.7548 5615,5606 L5615.00078,5011.23482 C5613.97175,4969.35587 5611.51386,4921.79555 5607.63413,4868.55355 C5597.68079,4731.96271 5590.26308,4669.78503 5559.6187,4551.10745 C5517.03811,4386.20411 5449.63232,4249.0202 5341.42019,4156.77444 C5245.85899,4075.313 5118.59386,4029.5608 4950.01123,4029.5608 Z M4709.74088,1365.6237 C4537.97384,1366.0189 4403.18218,1433.47504 4155.34491,1731.2051 L3749.67733,2216.82187 C4172.98744,3065.4091 4450.21286,3564.09314 4582.25922,3712.13743 C4673.61478,3814.56107 4904.61101,3888.87598 5092.77572,3918.72885 C5128.88428,3924.45757 5159.20495,3928.8455 5185.33488,3932.1915 C5237.56686,3938.87992 5279.76582,3940.20996 5311.16176,3940.95273 C5324.66442,3941.27218 5336.48277,3941.43259 5348.36466,3941.50823 L5351.35815,3941.52552 C5351.85311,3941.5281 5352.34843,3941.53054 5352.84425,3941.53285 L5354.7777,3941.5412 C5358.95527,3941.55785 5363.18701,3941.5658 5367.53879,3941.5682 L5369.56485,3941.56892 C5370.23741,3941.56904 5370.91773,3941.56903 5371.60144,3941.56892 L5373.66773,3941.56826 C5379.02904,3941.56577 5384.61426,3941.5574 5390.54602,3941.54852 C5395.79748,3941.54065 5401.31985,3941.53238 5407.23867,3941.52756 C5452.62303,3941.3787 5478.57553,3941.19684 5485.09568,3940.96194 C5530.62056,3939.32189 5549.84641,3929.18442 5568.85416,3913.44508 C5587.72771,3897.81685 5597.99877,3872.18883 5605.28476,3848.5856 C5610.71231,3831.00285 5613.68419,3798.67183 5615,3751.77417 L5615,2395 C5615,2132.15878 5517.30885,1892.13336 5356.24826,1709.28466 C5193.58838,1524.62031 4966.30328,1398.25733 4709.74088,1365.6237 Z M3364.52404,2671.09942 L3277.43729,2774.67043 L3277.43729,3588.08331 C3277.43729,3699.37119 3289.42248,3795.01945 3351.24395,3858.55235 L3352.78549,3860.11924 C3400.88418,3908.47464 3477.94245,3936.52035 3597.26773,3940.91435 L3597.488,3940.922 L3832.30059,3941.1657 C3886.76179,3939.70543 3925.33631,3934.30208 3949.84335,3920.26527 C3958.49369,3915.31065 3964.98149,3909.22211 3969.13228,3901.41763 C3973.75233,3892.73086 3975.54937,3882.26095 3975.54937,3869.9821 C3975.54937,3838.46507 3961.87501,3803.71243 3936.49137,3758.33171 L3364.52404,2671.09942 Z M2684.55491,1684.59711 C2682.50956,1682.83037 2678.66371,1684.93462 2676.72833,1685.56374 C2669.06709,1688.05413 2661.20686,1695.44232 2643.06268,1715.0217 C2627.81262,1731.47803 2606.97931,1756.49139 2580.7276,1789.64361 C2458.16909,1960.01596 2386,2169.08086 2386,2395 L2386.00073,3616.88899 C2386.04852,3632.26185 2388.44622,3830.40355 2390.04708,3847.00434 L2390.10515,3847.6072 C2391.27177,3859.72603 2390.5324,3891.01379 2406.82808,3902.23872 C2422.3311,3912.91764 2440.64022,3914.62243 2453.6515,3911.54408 C2525.32536,3894.58671 2587.13588,3859.62945 2629.35644,3802.11886 C2667.78028,3749.77997 2689.73174,3679.18294 2689.73174,3588.08331 L2689.73127,1710.79019 C2689.71056,1699.05715 2688.99365,1688.4312 2684.55491,1684.59711 Z M4009.90077,1365.61627 L3631.16903,1365.61627 C3491.89823,1365.61627 3404.72688,1392.85272 3352.1732,1444.29415 C3289.41373,1505.72536 3277.43729,1599.62745 3277.43729,1711.33248 L3277.43729,2631.28219 L4070.28126,1687.48634 C4131.11807,1615.72208 4167.25309,1537.01702 4167.25309,1475.77322 C4167.25309,1443.36436 4156.46194,1414.80337 4130.19532,1395.33493 C4104.09761,1375.99168 4064.5602,1365.61627 4009.90077,1365.61627 Z" id="Combined-Shape" stroke="#263E4B" stroke-width="50" fill-rule="nonzero"></path>
    </g>
</svg>